<?xml version="1.0" encoding="UTF-8"?>
<svg width="261" height="260" fill="none" version="1.1" viewBox="0 0 261 260" xmlns="http://www.w3.org/2000/svg" xmlns:cc="http://creativecommons.org/ns#" xmlns:dc="http://purl.org/dc/elements/1.1/" xmlns:rdf="http://www.w3.org/1999/02/22-rdf-syntax-ns#">
 <metadata>
  <rdf:RDF>
   <cc:Work rdf:about="">
    <dc:format>image/svg+xml</dc:format>
    <dc:type rdf:resource="http://purl.org/dc/dcmitype/StillImage"/>
    <dc:title/>
   </cc:Work>
  </rdf:RDF>
 </metadata>
 <path d="m61.678 0c-12.238 0-22.158 9.9147-22.158 22.145 0 12.23 9.9206 22.143 22.158 22.143 0.80453 0 1.5985-0.043411 2.3809-0.12695l17.867 27.955c-11.289 8.9809-19.928 21.132-24.58 35.111l-13.238-3.0273c-1.4672-10.808-10.732-19.141-21.949-19.141-12.238 0-22.158 9.9132-22.158 22.143 0 12.23 9.9207 22.145 22.158 22.145 7.7072 0 14.491-3.9337 18.461-9.9004l13.363 3.0566c-0.31143 2.7783-0.48438 5.5976-0.48438 8.459 0 12.137 2.8937 23.591 8.0039 33.74l-25.908 16.035c-3.7276-2.8456-8.3826-4.5391-13.436-4.5391-12.238 0-22.158 9.9145-22.158 22.145s9.9207 22.143 22.158 22.143c12.238 0 22.158-9.9126 22.158-22.143 0-1.487-0.15005-2.9389-0.42969-4.3438l26.064-16.133c8.6998 10.875 20.351 19.281 33.748 24.006l-3.1074 13.252c-10.875 1.4128-19.275 10.698-19.275 21.951 0 12.23 9.9202 22.145 22.158 22.145 12.237 0 22.158-9.9145 22.158-22.145 0-7.662-3.8947-14.415-9.8125-18.391l3.0938-13.191c3.2168 0.41942 6.491 0.66015 9.8223 0.66015 12.138 0 23.594-2.8904 33.746-7.9922l16.908 26.455c-2.4219 3.5496-3.8379 7.8386-3.8379 12.459 0 12.23 9.9212 22.145 22.158 22.145 12.238 0 22.156-9.9145 22.156-22.145s-9.9182-22.145-22.156-22.145c-1.9015 0-3.7486 0.23919-5.5098 0.68945l-16.551-25.896c10.931-8.7281 19.369-20.431 24.09-33.891l12.695 2.9024c1.0553 11.248 10.525 20.051 22.057 20.051 12.237 0 22.158-9.9126 22.158-22.143s-9.9212-22.145-22.158-22.145c-7.3734 0-13.9 3.6027-17.928 9.1387l-13.229-3.0254c0.40568-3.162 0.63867-6.3781 0.63867-9.6504 0-11.331-2.5244-22.067-7.0156-31.703l29.033-17.971c3.5334 2.3814 7.7908 3.7715 12.373 3.7715 12.238 0 22.158-9.9147 22.158-22.145 0-12.23-9.9202-22.145-22.158-22.145-12.237 0-22.158 9.9147-22.158 22.145 0 1.933 0.2492 3.8084 0.71485 5.5957l-28 17.328c-8.9734-11.935-21.426-21.095-35.844-26.021l3.0527-13.018c10.873-1.4137 19.273-10.699 19.273-21.951 0-12.23-9.9212-22.145-22.158-22.145-12.238 0-22.156 9.9147-22.156 22.145 0 7.6628 3.8935 14.417 9.8125 18.393l-3.0723 13.096c-2.9836-0.35955-6.0131-0.56641-9.0938-0.56641-12.09 0-23.505 2.8674-33.627 7.9316l-17.039-26.658c3.582-3.9337 5.7656-9.1608 5.7656-14.898 0-12.23-9.9207-22.145-22.158-22.145z" color="#000000" color-rendering="auto" dominant-baseline="auto" fill="#ffcd8b" image-rendering="auto" shape-rendering="auto" solid-color="#000000" stop-color="#000000" style="font-feature-settings:normal;font-variant-alternates:normal;font-variant-caps:normal;font-variant-east-asian:normal;font-variant-ligatures:normal;font-variant-numeric:normal;font-variant-position:normal;font-variation-settings:normal;inline-size:0;isolation:auto;mix-blend-mode:normal;shape-margin:0;shape-padding:0;text-decoration-color:#000000;text-decoration-line:none;text-decoration-style:solid;text-indent:0;text-orientation:mixed;text-transform:none;white-space:normal"/>
 <g fill="#F7EFE9">
  <path d="m130.86 101.46c7.557 0 13.682-6.122 13.682-13.674s-6.125-13.673-13.682-13.673c-7.556 0-13.682 6.1218-13.682 13.673s6.126 13.674 13.682 13.674z"/>
  <path d="m165.63 117.29c5.662 0 10.252-4.587 10.252-10.246 0-5.658-4.59-10.245-10.252-10.245s-10.252 4.5872-10.252 10.245c0 5.659 4.59 10.246 10.252 10.246z"/>
  <path d="m137.46 129.95c4.657 0 8.431-3.773 8.431-8.426s-3.774-8.426-8.431-8.426c-4.656 0-8.431 3.773-8.431 8.426s3.775 8.426 8.431 8.426z"/>
 </g>
</svg>
