<?xml version="1.0" encoding="UTF-8" standalone="no"?>
<svg
   xmlns:dc="http://purl.org/dc/elements/1.1/"
   xmlns:cc="http://creativecommons.org/ns#"
   xmlns:rdf="http://www.w3.org/1999/02/22-rdf-syntax-ns#"
   xmlns:svg="http://www.w3.org/2000/svg"
   xmlns="http://www.w3.org/2000/svg"
   xmlns:sodipodi="http://sodipodi.sourceforge.net/DTD/sodipodi-0.dtd"
   xmlns:inkscape="http://www.inkscape.org/namespaces/inkscape"
   width="72px"
   height="72px"
   version="1.1"
   xml:space="preserve"
   style="fill-rule:evenodd;clip-rule:evenodd;stroke-linejoin:round;stroke-miterlimit:2;"
   id="svg8"
   sodipodi:docname="Covid.svg"
   inkscape:version="1.0.1 (3bc2e813f5, 2020-09-07)"><metadata
   id="metadata14"><rdf:RDF><cc:Work
       rdf:about=""><dc:format>image/svg+xml</dc:format><dc:type
         rdf:resource="http://purl.org/dc/dcmitype/StillImage" /></cc:Work></rdf:RDF></metadata><defs
   id="defs12" /><sodipodi:namedview
   pagecolor="#ffffff"
   bordercolor="#666666"
   borderopacity="1"
   objecttolerance="10"
   gridtolerance="10"
   guidetolerance="10"
   inkscape:pageopacity="0"
   inkscape:pageshadow="2"
   inkscape:window-width="1600"
   inkscape:window-height="847"
   id="namedview10"
   showgrid="false"
   inkscape:zoom="4.6666667"
   inkscape:cx="22.793939"
   inkscape:cy="46.141713"
   inkscape:window-x="1358"
   inkscape:window-y="-8"
   inkscape:window-maximized="1"
   inkscape:current-layer="g4" />
    <g
   transform="matrix(1,0,0,1,-1724,-17)"
   id="g6">
        <g
   id="g4">
            <path
   d="M1732.3,54.5C1731.69,56.127 1730.12,57.286 1728.29,57.286C1725.92,57.286 1724,55.365 1724,53C1724,50.635 1725.92,48.714 1728.29,48.714C1730.12,48.714 1731.69,49.873 1732.3,51.5L1740.56,51.5C1740.89,47.068 1742.72,43.049 1745.53,39.939L1741.3,35.709C1740.18,36.241 1738.8,36.046 1737.88,35.123C1736.71,33.952 1736.71,32.051 1737.88,30.88C1739.05,29.709 1740.95,29.709 1742.12,30.88C1743.05,31.803 1743.24,33.18 1742.71,34.295L1746.94,38.525C1750.05,35.716 1754.07,33.895 1758.5,33.557L1758.5,25.301C1756.87,24.692 1755.71,23.123 1755.71,21.286C1755.71,18.92 1757.63,17 1760,17C1762.37,17 1764.29,18.92 1764.29,21.286C1764.29,23.123 1763.13,24.692 1761.5,25.301L1761.5,33.557C1765.93,33.895 1769.95,35.717 1773.06,38.525L1777.29,34.295C1776.76,33.18 1776.95,31.803 1777.88,30.88C1779.05,29.709 1780.95,29.709 1782.12,30.88C1783.29,32.051 1783.29,33.952 1782.12,35.123C1781.2,36.046 1779.82,36.241 1778.7,35.709L1774.48,39.939C1777.28,43.05 1779.11,47.069 1779.44,51.5L1787.7,51.5C1788.31,49.873 1789.88,48.714 1791.71,48.714C1794.08,48.714 1796,50.635 1796,53C1796,55.365 1794.08,57.286 1791.71,57.286C1789.88,57.286 1788.31,56.127 1787.7,54.5L1779.44,54.5C1779.11,58.932 1777.28,62.951 1774.48,66.061L1778.7,70.291C1779.82,69.759 1781.2,69.954 1782.12,70.877C1783.29,72.048 1783.29,73.949 1782.12,75.12C1780.95,76.291 1779.05,76.291 1777.88,75.12C1776.95,74.197 1776.76,72.82 1777.29,71.705L1773.06,67.475C1769.95,70.284 1765.93,72.105 1761.5,72.443L1761.5,80.699C1763.13,81.308 1764.29,82.877 1764.29,84.714C1764.29,87.08 1762.37,89 1760,89C1757.63,89 1755.71,87.08 1755.71,84.714C1755.71,82.877 1756.87,81.308 1758.5,80.699L1758.5,72.443C1754.07,72.105 1750.05,70.283 1746.94,67.475L1742.71,71.705C1743.24,72.82 1743.05,74.197 1742.12,75.12C1740.95,76.291 1739.05,76.291 1737.88,75.12C1736.71,73.949 1736.71,72.048 1737.88,70.877C1738.8,69.954 1740.18,69.759 1741.3,70.291L1745.53,66.061C1742.72,62.95 1740.89,58.931 1740.56,54.5L1732.3,54.5ZM1760,36.5C1769.11,36.5 1776.5,43.893 1776.5,53C1776.5,62.107 1769.11,69.5 1760,69.5C1750.89,69.5 1743.5,62.107 1743.5,53C1743.5,43.893 1750.89,36.5 1760,36.5Z"
   style="fill:#9bd106;fill-opacity:1"
   id="path2" />
        </g>
    </g>
</svg>
