<?xml version="1.0" encoding="UTF-8" standalone="no"?>
<!DOCTYPE svg PUBLIC "-//W3C//DTD SVG 1.1//EN" "http://www.w3.org/Graphics/SVG/1.1/DTD/svg11.dtd">
<svg width="444px" height="308px" version="1.1" xmlns="http://www.w3.org/2000/svg" xmlns:xlink="http://www.w3.org/1999/xlink" xml:space="preserve" xmlns:serif="http://www.serif.com/" style="fill-rule:evenodd;clip-rule:evenodd;stroke-linejoin:round;stroke-miterlimit:2;">
    <g transform="matrix(1,0,0,1,-609.682,-384)">
        <g>
            <g transform="matrix(1,0,0,1,0,41.9788)">
                <g transform="matrix(0.866025,-0.5,1,0.57735,0,0)">
                    <rect x="-192" y="775.959" width="320" height="166.277" style="fill:rgb(0,204,136);"/>
                </g>
                <g transform="matrix(0.866025,0.5,-4.93557e-17,1.02666,-1.0235e-15,21.2901)">
                    <rect x="704" y="166.277" width="192" height="9.733" style="fill:rgb(0,153,102);"/>
                </g>
                <g transform="matrix(1.44338,-0.833333,1.02716e-32,1.02666,-240.178,1055.96)">
                    <rect x="704" y="166.277" width="192" height="9.733" style="fill:rgb(0,128,85);"/>
                </g>
                <g transform="matrix(0.866025,-0.5,1,0.57735,0,0)">
                    <rect x="-168" y="796.743" width="272" height="124.708" style="fill:rgb(0,255,170);"/>
                </g>
                <g transform="matrix(0.866025,-0.5,0.866025,0.5,17.583,25.258)">
                    <g transform="matrix(83.1384,0,0,83.1384,-44.1143,986.823)">
                        <path d="M0.303,0.091L0.362,0.091L0.362,0.01C0.522,0.001 0.615,-0.082 0.615,-0.208C0.615,-0.329 0.523,-0.393 0.397,-0.422L0.362,-0.43L0.362,-0.607C0.418,-0.599 0.453,-0.567 0.458,-0.518L0.605,-0.518C0.603,-0.64 0.508,-0.727 0.362,-0.737L0.362,-0.818L0.303,-0.818L0.303,-0.736C0.16,-0.725 0.058,-0.64 0.059,-0.517C0.059,-0.41 0.134,-0.348 0.257,-0.319L0.303,-0.307L0.303,-0.12C0.238,-0.128 0.193,-0.164 0.189,-0.228L0.04,-0.228C0.043,-0.08 0.144,0.001 0.303,0.01L0.303,0.091ZM0.362,-0.121L0.362,-0.292C0.425,-0.275 0.46,-0.252 0.46,-0.208C0.46,-0.162 0.422,-0.129 0.362,-0.121ZM0.303,-0.445C0.254,-0.46 0.216,-0.483 0.217,-0.527C0.217,-0.567 0.247,-0.599 0.303,-0.607L0.303,-0.445Z" style="fill:rgb(0,153,102);fill-rule:nonzero;"/>
                    </g>
                </g>
            </g>
            <g transform="matrix(1,0,0,1,0,27.9859)">
                <g transform="matrix(0.866025,-0.5,1,0.57735,0,0)">
                    <rect x="-192" y="775.959" width="320" height="166.277" style="fill:rgb(0,204,136);"/>
                </g>
                <g transform="matrix(0.866025,0.5,-4.93557e-17,1.02666,-1.0235e-15,21.2901)">
                    <rect x="704" y="166.277" width="192" height="9.733" style="fill:rgb(0,153,102);"/>
                </g>
                <g transform="matrix(1.44338,-0.833333,1.02716e-32,1.02666,-240.178,1055.96)">
                    <rect x="704" y="166.277" width="192" height="9.733" style="fill:rgb(0,128,85);"/>
                </g>
                <g transform="matrix(0.866025,-0.5,1,0.57735,0,0)">
                    <rect x="-168" y="796.743" width="272" height="124.708" style="fill:rgb(0,255,170);"/>
                </g>
                <g transform="matrix(0.866025,-0.5,0.866025,0.5,17.583,25.258)">
                    <g transform="matrix(83.1384,0,0,83.1384,-44.1143,986.823)">
                        <path d="M0.303,0.091L0.362,0.091L0.362,0.01C0.522,0.001 0.615,-0.082 0.615,-0.208C0.615,-0.329 0.523,-0.393 0.397,-0.422L0.362,-0.43L0.362,-0.607C0.418,-0.599 0.453,-0.567 0.458,-0.518L0.605,-0.518C0.603,-0.64 0.508,-0.727 0.362,-0.737L0.362,-0.818L0.303,-0.818L0.303,-0.736C0.16,-0.725 0.058,-0.64 0.059,-0.517C0.059,-0.41 0.134,-0.348 0.257,-0.319L0.303,-0.307L0.303,-0.12C0.238,-0.128 0.193,-0.164 0.189,-0.228L0.04,-0.228C0.043,-0.08 0.144,0.001 0.303,0.01L0.303,0.091ZM0.362,-0.121L0.362,-0.292C0.425,-0.275 0.46,-0.252 0.46,-0.208C0.46,-0.162 0.422,-0.129 0.362,-0.121ZM0.303,-0.445C0.254,-0.46 0.216,-0.483 0.217,-0.527C0.217,-0.567 0.247,-0.599 0.303,-0.607L0.303,-0.445Z" style="fill:rgb(0,153,102);fill-rule:nonzero;"/>
                    </g>
                </g>
            </g>
            <g transform="matrix(1,0,0,1,0,13.9929)">
                <g transform="matrix(0.866025,-0.5,1,0.57735,0,0)">
                    <rect x="-192" y="775.959" width="320" height="166.277" style="fill:rgb(0,204,136);"/>
                </g>
                <g transform="matrix(0.866025,0.5,-4.93557e-17,1.02666,-1.0235e-15,21.2901)">
                    <rect x="704" y="166.277" width="192" height="9.733" style="fill:rgb(0,153,102);"/>
                </g>
                <g transform="matrix(1.44338,-0.833333,1.02716e-32,1.02666,-240.178,1055.96)">
                    <rect x="704" y="166.277" width="192" height="9.733" style="fill:rgb(0,128,85);"/>
                </g>
                <g transform="matrix(0.866025,-0.5,1,0.57735,0,0)">
                    <rect x="-168" y="796.743" width="272" height="124.708" style="fill:rgb(0,255,170);"/>
                </g>
                <g transform="matrix(0.866025,-0.5,0.866025,0.5,17.583,25.258)">
                    <g transform="matrix(83.1384,0,0,83.1384,-44.1143,986.823)">
                        <path d="M0.303,0.091L0.362,0.091L0.362,0.01C0.522,0.001 0.615,-0.082 0.615,-0.208C0.615,-0.329 0.523,-0.393 0.397,-0.422L0.362,-0.43L0.362,-0.607C0.418,-0.599 0.453,-0.567 0.458,-0.518L0.605,-0.518C0.603,-0.64 0.508,-0.727 0.362,-0.737L0.362,-0.818L0.303,-0.818L0.303,-0.736C0.16,-0.725 0.058,-0.64 0.059,-0.517C0.059,-0.41 0.134,-0.348 0.257,-0.319L0.303,-0.307L0.303,-0.12C0.238,-0.128 0.193,-0.164 0.189,-0.228L0.04,-0.228C0.043,-0.08 0.144,0.001 0.303,0.01L0.303,0.091ZM0.362,-0.121L0.362,-0.292C0.425,-0.275 0.46,-0.252 0.46,-0.208C0.46,-0.162 0.422,-0.129 0.362,-0.121ZM0.303,-0.445C0.254,-0.46 0.216,-0.483 0.217,-0.527C0.217,-0.567 0.247,-0.599 0.303,-0.607L0.303,-0.445Z" style="fill:rgb(0,153,102);fill-rule:nonzero;"/>
                    </g>
                </g>
            </g>
            <g>
                <g transform="matrix(0.866025,-0.5,1,0.57735,0,0)">
                    <rect x="-192" y="775.959" width="320" height="166.277" style="fill:rgb(0,204,136);"/>
                </g>
                <g transform="matrix(0.866025,0.5,-4.93557e-17,1.02666,-1.0235e-15,21.2901)">
                    <rect x="704" y="166.277" width="192" height="9.733" style="fill:rgb(0,153,102);"/>
                </g>
                <g transform="matrix(1.44338,-0.833333,1.02716e-32,1.02666,-240.178,1055.96)">
                    <rect x="704" y="166.277" width="192" height="9.733" style="fill:rgb(0,128,85);"/>
                </g>
                <g transform="matrix(0.866025,-0.5,1,0.57735,0,0)">
                    <rect x="-168" y="796.743" width="272" height="124.708" style="fill:rgb(0,255,170);"/>
                </g>
                <g transform="matrix(0.866025,-0.5,0.866025,0.5,17.583,25.258)">
                    <g transform="matrix(83.1384,0,0,83.1384,-44.1143,986.823)">
                        <path d="M0.303,0.091L0.362,0.091L0.362,0.01C0.522,0.001 0.615,-0.082 0.615,-0.208C0.615,-0.329 0.523,-0.393 0.397,-0.422L0.362,-0.43L0.362,-0.607C0.418,-0.599 0.453,-0.567 0.458,-0.518L0.605,-0.518C0.603,-0.64 0.508,-0.727 0.362,-0.737L0.362,-0.818L0.303,-0.818L0.303,-0.736C0.16,-0.725 0.058,-0.64 0.059,-0.517C0.059,-0.41 0.134,-0.348 0.257,-0.319L0.303,-0.307L0.303,-0.12C0.238,-0.128 0.193,-0.164 0.189,-0.228L0.04,-0.228C0.043,-0.08 0.144,0.001 0.303,0.01L0.303,0.091ZM0.362,-0.121L0.362,-0.292C0.425,-0.275 0.46,-0.252 0.46,-0.208C0.46,-0.162 0.422,-0.129 0.362,-0.121ZM0.303,-0.445C0.254,-0.46 0.216,-0.483 0.217,-0.527C0.217,-0.567 0.247,-0.599 0.303,-0.607L0.303,-0.445Z" style="fill:rgb(0,153,102);fill-rule:nonzero;"/>
                    </g>
                </g>
            </g>
        </g>
    </g>
</svg>
