<?xml version="1.0" encoding="UTF-8" standalone="no"?>
<!DOCTYPE svg PUBLIC "-//W3C//DTD SVG 1.1//EN" "http://www.w3.org/Graphics/SVG/1.1/DTD/svg11.dtd">
<svg width="348px" height="352px" version="1.1" xmlns="http://www.w3.org/2000/svg" xmlns:xlink="http://www.w3.org/1999/xlink" xml:space="preserve" xmlns:serif="http://www.serif.com/" style="fill-rule:evenodd;clip-rule:evenodd;stroke-linejoin:round;stroke-miterlimit:2;">
    <g transform="matrix(1,0,0,1,-1204.48,-448)">
        <g>
            <path d="M1496.49,800L1551.92,576L1330.21,448L1274.79,672L1496.49,800Z" style="fill:rgb(253,169,2);"/>
            <g>
                <path d="M1530.91,597.254L1330.21,481.384L1290.75,640.893L1491.44,756.762L1530.91,597.254Z" style="fill:rgb(255,247,232);"/>
                <g>
                    <g>
                        <g transform="matrix(1,0,0,1,21.0684,12.1639)">
                            <path d="M1332.11,535.014L1309.15,627.836L1310.83,628.811L1333.8,535.988L1332.11,535.014Z" style="fill:rgb(194,184,163);"/>
                        </g>
                        <g transform="matrix(1,0,0,1,25.4426,14.6893)">
                            <path d="M1330.57,541.247L1309.15,627.836L1310.83,628.811L1332.26,542.221L1330.57,541.247Z" style="fill:rgb(194,184,163);"/>
                        </g>
                        <g transform="matrix(1,0,0,1,29.8168,17.2147)">
                            <path d="M1332.03,535.354L1309.15,627.836L1310.83,628.811L1333.72,536.328L1332.03,535.354Z" style="fill:rgb(194,184,163);"/>
                        </g>
                        <g transform="matrix(1,0,0,1,34.1909,19.7402)">
                            <path d="M1331.09,539.16L1309.15,627.836L1310.83,628.811L1332.78,540.135L1331.09,539.16Z" style="fill:rgb(194,184,163);"/>
                        </g>
                        <g transform="matrix(1,0,0,1,38.5651,22.2656)">
                            <path d="M1330.51,541.499L1309.15,627.836L1310.83,628.811L1332.2,542.473L1330.51,541.499Z" style="fill:rgb(194,184,163);"/>
                        </g>
                        <g transform="matrix(1,0,0,1,42.9393,24.791)">
                            <path d="M1331.97,535.606L1309.15,627.836L1310.83,628.811L1333.65,536.581L1331.97,535.606Z" style="fill:rgb(194,184,163);"/>
                        </g>
                        <g transform="matrix(1,0,0,1,47.3135,27.3164)">
                            <path d="M1331.99,535.499L1309.15,627.836L1310.83,628.811L1333.68,536.473L1331.99,535.499Z" style="fill:rgb(194,184,163);"/>
                        </g>
                        <g transform="matrix(1,0,0,1,51.6876,29.8419)">
                            <path d="M1330.95,539.733L1309.15,627.836L1310.83,628.811L1332.63,540.707L1330.95,539.733Z" style="fill:rgb(194,184,163);"/>
                        </g>
                        <g transform="matrix(1,0,0,1,56.0618,32.3673)">
                            <path d="M1331.86,536.061L1309.15,627.836L1310.83,628.811L1333.54,537.036L1331.86,536.061Z" style="fill:rgb(194,184,163);"/>
                        </g>
                        <g transform="matrix(1,0,0,1,60.1617,34.7344)">
                            <path d="M1330.52,541.469L1309.15,627.836L1310.83,628.811L1332.2,542.444L1330.52,541.469Z" style="fill:rgb(194,184,163);"/>
                        </g>
                        <g transform="matrix(1,0,0,1,64.5359,37.2598)">
                            <path d="M1331.98,535.576L1309.15,627.836L1310.83,628.811L1333.66,536.551L1331.98,535.576Z" style="fill:rgb(194,184,163);"/>
                        </g>
                        <g transform="matrix(1,0,0,1,68.9101,39.7852)">
                            <path d="M1323.88,568.293L1309.15,627.836L1310.83,628.811L1325.57,569.267L1323.88,568.293Z" style="fill:rgb(194,184,163);"/>
                        </g>
                        <g transform="matrix(1,0,0,1,73.2842,42.3107)">
                            <path d="M1340.12,502.644L1309.15,627.836L1310.83,628.811L1341.81,503.619L1340.12,502.644Z" style="fill:rgb(194,184,163);"/>
                        </g>
                        <g transform="matrix(1,0,0,1,77.6584,44.8361)">
                            <path d="M1338.36,509.787L1309.15,627.836L1310.83,628.811L1340.04,510.761L1338.36,509.787Z" style="fill:rgb(194,184,163);"/>
                        </g>
                        <g transform="matrix(1,0,0,1,82.0326,47.3615)">
                            <path d="M1340.12,502.644L1309.15,627.836L1310.83,628.811L1341.81,503.619L1340.12,502.644Z" style="fill:rgb(194,184,163);"/>
                        </g>
                        <g transform="matrix(1,0,0,1,86.4068,49.887)">
                            <path d="M1335.68,520.581L1309.15,627.836L1310.83,628.811L1337.37,521.555L1335.68,520.581Z" style="fill:rgb(194,184,163);"/>
                        </g>
                        <g transform="matrix(1,0,0,1,90.7809,52.4124)">
                            <path d="M1338.61,508.749L1309.15,627.836L1310.83,628.811L1340.3,509.724L1338.61,508.749Z" style="fill:rgb(194,184,163);"/>
                        </g>
                        <g transform="matrix(1,0,0,1,95.1551,54.9378)">
                            <path d="M1340.12,502.644L1309.15,627.836L1310.83,628.811L1341.81,503.619L1340.12,502.644Z" style="fill:rgb(194,184,163);"/>
                        </g>
                        <g transform="matrix(1,0,0,1,99.255,57.3049)">
                            <path d="M1329.36,546.154L1309.15,627.836L1310.83,628.811L1331.05,547.129L1329.36,546.154Z" style="fill:rgb(194,184,163);"/>
                        </g>
                        <g transform="matrix(1,0,0,1,103.629,59.8303)">
                            <path d="M1338.01,511.192L1309.15,627.836L1310.83,628.811L1339.7,512.166L1338.01,511.192Z" style="fill:rgb(194,184,163);"/>
                        </g>
                        <g transform="matrix(1,0,0,1,108.003,62.3558)">
                            <path d="M1335.32,522.049L1309.15,627.836L1310.83,628.811L1337.01,523.024L1335.32,522.049Z" style="fill:rgb(194,184,163);"/>
                        </g>
                        <g transform="matrix(1,0,0,1,112.378,64.8812)">
                            <path d="M1338.01,511.192L1309.15,627.836L1310.83,628.811L1339.7,512.166L1338.01,511.192Z" style="fill:rgb(194,184,163);"/>
                        </g>
                        <g transform="matrix(1,0,0,1,116.752,67.4066)">
                            <path d="M1334.11,526.953L1309.15,627.836L1310.83,628.811L1335.8,527.928L1334.11,526.953Z" style="fill:rgb(194,184,163);"/>
                        </g>
                        <g transform="matrix(1,0,0,1,121.126,69.9321)">
                            <path d="M1336.4,517.69L1309.15,627.836L1310.83,628.811L1338.09,518.665L1336.4,517.69Z" style="fill:rgb(194,184,163);"/>
                        </g>
                        <g transform="matrix(1,0,0,1,125.5,72.4575)">
                            <path d="M1340.12,502.644L1309.15,627.836L1310.83,628.811L1341.81,503.619L1340.12,502.644Z" style="fill:rgb(194,184,163);"/>
                        </g>
                        <g transform="matrix(1,0,0,1,129.874,74.9829)">
                            <path d="M1320.51,581.904L1309.15,627.836L1310.83,628.811L1322.2,582.878L1320.51,581.904Z" style="fill:rgb(194,184,163);"/>
                        </g>
                        <g transform="matrix(1,0,0,1,134.248,77.5084)">
                            <path d="M1337.78,512.119L1309.15,627.836L1310.83,628.811L1339.47,513.093L1337.78,512.119Z" style="fill:rgb(194,184,163);"/>
                        </g>
                        <g transform="matrix(1,0,0,1,138.623,80.0338)">
                            <path d="M1339.32,505.908L1309.15,627.836L1310.83,628.811L1341,506.882L1339.32,505.908Z" style="fill:rgb(194,184,163);"/>
                        </g>
                        <g transform="matrix(1,0,0,1,142.997,82.5592)">
                            <path d="M1338.89,507.647L1309.15,627.836L1310.83,628.811L1340.57,508.621L1338.89,507.647Z" style="fill:rgb(194,184,163);"/>
                        </g>
                        <g transform="matrix(1,0,0,1,147.371,85.0847)">
                            <path d="M1338.26,510.166L1309.15,627.836L1310.83,628.811L1339.95,511.14L1338.26,510.166Z" style="fill:rgb(194,184,163);"/>
                        </g>
                        <g transform="matrix(1,0,0,1,151.745,87.6101)">
                            <path d="M1336.86,515.836L1309.15,627.836L1310.83,628.811L1338.55,516.811L1336.86,515.836Z" style="fill:rgb(194,184,163);"/>
                        </g>
                        <g transform="matrix(1,0,0,1,156.119,90.1355)">
                            <path d="M1340.12,502.644L1309.15,627.836L1310.83,628.811L1341.81,503.619L1340.12,502.644Z" style="fill:rgb(194,184,163);"/>
                        </g>
                        <g transform="matrix(1,0,0,1,160.493,92.6609)">
                            <path d="M1325.14,563.2L1309.15,627.836L1310.83,628.811L1326.83,564.174L1325.14,563.2Z" style="fill:rgb(194,184,163);"/>
                        </g>
                    </g>
                    <path d="M1331.71,536.637L1309.15,627.836L1313.19,630.169L1335.75,538.97L1331.71,536.637Z" style="fill:rgb(122,109,82);"/>
                    <path d="M1361.19,514.808L1406.35,540.878L1399.38,569.038L1354.22,542.967L1361.19,514.808Z" style="fill:rgb(161,146,114);"/>
                    <path d="M1361.19,514.808L1406.35,540.878L1399.38,569.038L1354.22,542.967L1361.19,514.808ZM1356.3,542.086L1398.21,566.282L1404.28,541.76L1362.37,517.563L1356.3,542.086Z" style="fill:rgb(194,184,163);"/>
                </g>
            </g>
            <path d="M1274.79,672L1204.48,469.036L1315.33,533.036L1330.21,576L1441.07,640L1496.49,800L1274.79,672Z" style="fill:rgb(254,212,128);"/>
        </g>
    </g>
</svg>
