<?xml version="1.0" encoding="UTF-8" standalone="no"?>
<!DOCTYPE svg PUBLIC "-//W3C//DTD SVG 1.1//EN" "http://www.w3.org/Graphics/SVG/1.1/DTD/svg11.dtd">
<svg width="214px" height="301px" version="1.1" xmlns="http://www.w3.org/2000/svg" xmlns:xlink="http://www.w3.org/1999/xlink" xml:space="preserve" xmlns:serif="http://www.serif.com/" style="fill-rule:evenodd;clip-rule:evenodd;stroke-linecap:square;stroke-linejoin:round;stroke-miterlimit:1.5;">
    <g transform="matrix(1,0,0,1,-1328.22,-126)">
        <g>
            <g transform="matrix(1,0,0,1,0,2.57338)">
                <path d="M1358.37,181.809L1435.21,181.809" style="fill:none;stroke:white;stroke-width:7px;"/>
            </g>
            <g transform="matrix(2,0,0,1,-1358.37,34.3066)">
                <path d="M1358.37,181.809L1435.21,181.809" style="fill:none;stroke:white;stroke-width:2.53px;"/>
            </g>
            <g transform="matrix(2,0,0,1,-1358.37,53.2619)">
                <path d="M1358.37,181.809L1435.21,181.809" style="fill:none;stroke:white;stroke-width:2.53px;"/>
            </g>
            <g transform="matrix(2,0,0,1,-1358.37,72.2172)">
                <path d="M1358.37,181.809L1435.21,181.809" style="fill:none;stroke:white;stroke-width:2.53px;"/>
            </g>
            <g transform="matrix(2,0,0,1,-1358.37,91.1725)">
                <path d="M1358.37,181.809L1435.21,181.809" style="fill:none;stroke:white;stroke-width:2.53px;"/>
            </g>
            <g transform="matrix(2,0,0,1,-1358.37,110.128)">
                <path d="M1358.37,181.809L1435.21,181.809" style="fill:none;stroke:white;stroke-width:2.53px;"/>
            </g>
            <g transform="matrix(2,0,0,1,-1358.37,129.083)">
                <path d="M1358.37,181.809L1435.21,181.809" style="fill:none;stroke:white;stroke-width:2.53px;"/>
            </g>
            <g transform="matrix(2,0,0,1,-1358.37,148.038)">
                <path d="M1358.37,181.809L1435.21,181.809" style="fill:none;stroke:white;stroke-width:2.53px;"/>
            </g>
            <g transform="matrix(2,0,0,1,-1358.37,166.994)">
                <path d="M1358.37,181.809L1435.21,181.809" style="fill:none;stroke:white;stroke-width:2.53px;"/>
            </g>
            <g transform="matrix(0.728761,0,0,1,466.127,185.949)">
                <path d="M1358.37,181.809L1435.21,181.809" style="fill:none;stroke:white;stroke-width:4.57px;"/>
            </g>
            <g transform="matrix(0.728761,0,0,1,466.127,204.904)">
                <path d="M1358.37,181.809L1435.21,181.809" style="fill:none;stroke:white;stroke-width:4.57px;"/>
            </g>
            <path d="M1492.87,128L1540.22,175.341L1540.22,425L1330.21,425L1330.21,128L1492.87,128Z" style="fill:none;stroke:white;stroke-width:4px;"/>
            <path d="M1540.22,175.341L1492.87,175.341L1492.87,128L1540.22,175.341Z" style="fill:white;stroke:white;stroke-width:4px;"/>
        </g>
    </g>
</svg>
